<svg viewBox="0 0 200 200" fill="none" xmlns="http://www.w3.org/2000/svg">
  <!-- 背景圆形 -->
  <circle cx="100" cy="100" r="90" fill="url(#libraryGradient)" />
  
  <!-- 歌单列表背景 -->
  <rect x="50" y="60" width="100" height="80" rx="8" fill="white" />
  
  <!-- 歌单条目 -->
  <g fill="#4ade80">
    <rect x="60" y="70" width="80" height="6" rx="3" />
    <rect x="60" y="82" width="60" height="6" rx="3" />
    <rect x="60" y="94" width="70" height="6" rx="3" />
    <rect x="60" y="106" width="50" height="6" rx="3" />
    <rect x="60" y="118" width="65" height="6" rx="3" />
  </g>
  
  <!-- 收藏心形图标 -->
  <g transform="translate(155, 45)">
    <circle cx="0" cy="0" r="15" fill="#ef4444" />
    <path d="M-6 -3 C-8 -6 -12 -6 -12 -2 C-12 2 -6 8 0 10 C6 8 12 2 12 -2 C12 -6 8 -6 6 -3 Z" fill="white" />
  </g>
  
  <!-- 音符装饰 -->
  <g fill="white" opacity="0.8">
    <circle cx="40" cy="50" r="2" />
    <ellipse cx="40" cy="45" rx="1" ry="4" />
    <path d="M41 45 L47 43 L47 50 L41 52 Z" />
    
    <circle cx="160" cy="160" r="1.5" />
    <ellipse cx="160" cy="156" rx="0.8" ry="3" />
    <path d="M160.8 156 L165 154 L165 160 L160.8 162 Z" />
  </g>
  
  <!-- 播放列表图标装饰 -->
  <g stroke="white" stroke-width="2" fill="none" opacity="0.6">
    <rect x="25" y="120" width="15" height="10" rx="2" />
    <line x1="30" y1="135" x2="35" y2="135" />
    <line x1="28" y1="140" x2="37" y2="140" />
  </g>
  
  <defs>
    <linearGradient id="libraryGradient" x1="0%" y1="0%" x2="100%" y2="100%">
      <stop offset="0%" style="stop-color:#4ade80" />
      <stop offset="100%" style="stop-color:#06b6d4" />
    </linearGradient>
  </defs>
</svg>
