<svg viewBox="0 0 200 200" fill="none" xmlns="http://www.w3.org/2000/svg">
  <!-- 背景圆形 -->
  <circle cx="100" cy="100" r="90" fill="url(#playerGradient)" />
  
  <!-- 播放器外圈 -->
  <circle cx="100" cy="100" r="60" stroke="white" stroke-width="3" fill="none" />
  
  <!-- 播放按钮 -->
  <circle cx="100" cy="100" r="25" fill="white" />
  <path d="M90 85 L90 115 L115 100 Z" fill="url(#playerGradient)" />
  
  <!-- 音频波形装饰 -->
  <g stroke="white" stroke-width="2" stroke-linecap="round" opacity="0.7">
    <line x1="40" y1="100" x2="40" y2="90" />
    <line x1="45" y1="100" x2="45" y2="80" />
    <line x1="50" y1="100" x2="50" y2="95" />
    <line x1="55" y1="100" x2="55" y2="75" />
    
    <line x1="160" y1="100" x2="160" y2="90" />
    <line x1="155" y1="100" x2="155" y2="80" />
    <line x1="150" y1="100" x2="150" y2="95" />
    <line x1="145" y1="100" x2="145" y2="75" />
  </g>
  
  <!-- 音符装饰 -->
  <g fill="white" opacity="0.6">
    <circle cx="140" cy="50" r="2" />
    <ellipse cx="140" cy="45" rx="1" ry="5" />
    <path d="M141 45 L148 42 L148 52 L141 55 Z" />
    
    <circle cx="60" cy="150" r="2" />
    <ellipse cx="60" cy="145" rx="1" ry="5" />
    <path d="M61 145 L68 142 L68 152 L61 155 Z" />
  </g>
  
  <defs>
    <linearGradient id="playerGradient" x1="0%" y1="0%" x2="100%" y2="100%">
      <stop offset="0%" style="stop-color:#f093fb" />
      <stop offset="100%" style="stop-color:#f5576c" />
    </linearGradient>
  </defs>
</svg>
